<svg width="16" height="17" viewBox="0 0 16 17" fill="none" xmlns="http://www.w3.org/2000/svg">
<path fill-rule="evenodd" clip-rule="evenodd" d="M8 1.54333C4.134 1.54333 1 4.37867 1 7.87667C1 9.56134 1.732 11.088 2.91733 12.2233L2.33867 15.056C2.32634 15.1166 2.33111 15.1794 2.35245 15.2374C2.37378 15.2955 2.41083 15.3464 2.45945 15.3846C2.50808 15.4228 2.56637 15.4467 2.62781 15.4537C2.68924 15.4606 2.7514 15.4503 2.80733 15.424L5.96133 13.9353C6.62551 14.1178 7.31121 14.2102 8 14.21C11.866 14.21 15 11.3747 15 7.87667C15 4.37867 11.866 1.54333 8 1.54333" fill="#8B95A1"/>
</svg>
