<svg width="16" height="16" viewBox="0 0 16 16" fill="none" xmlns="http://www.w3.org/2000/svg">
<path fill-rule="evenodd" clip-rule="evenodd" d="M3.41413 3.25888C3.86981 3.6273 4.03463 3.59821 4.88781 3.54004L12.9252 3.05527C13.0997 3.05527 12.9543 2.88076 12.8961 2.86137L11.5582 1.90153C11.3061 1.70763 10.9571 1.47494 10.3075 1.53311L2.53186 2.10514C2.25069 2.13422 2.19252 2.27965 2.30886 2.3863L3.41413 3.25888ZM3.89889 5.13007V13.5844C3.89889 14.04 4.12188 14.2049 4.63574 14.1758L13.4681 13.6619C13.982 13.6328 14.0402 13.3226 14.0402 12.9542V4.55804C14.0402 4.18962 13.8947 3.98602 13.5845 4.01511L4.35457 4.55804C4.01524 4.58713 3.89889 4.76164 3.89889 5.13007ZM12.615 5.58575C12.6731 5.83782 12.615 6.0996 12.3629 6.12868L11.9363 6.21594V12.4597C11.5679 12.6536 11.2285 12.77 10.9377 12.77C10.482 12.77 10.3657 12.6245 10.0263 12.1979L7.24377 7.82536V12.0525L8.12604 12.2464C8.12604 12.2464 8.12604 12.7603 7.41828 12.7603L5.45983 12.8766C5.40166 12.7603 5.45983 12.4791 5.65374 12.4209L6.16759 12.2755V6.69101L5.45983 6.63284C5.40166 6.38076 5.54709 6.01234 5.9446 5.98325L8.04848 5.83782L10.9474 10.2589V6.35167L10.2105 6.26442C10.1524 5.95417 10.385 5.72148 10.6662 5.69239L12.615 5.58575ZM1.88227 1.32951L9.97784 0.738099C10.9668 0.650842 11.2285 0.709013 11.849 1.16469L14.428 2.97771C14.8546 3.28796 15 3.37522 15 3.71455V13.6716C15 14.2921 14.777 14.6605 13.982 14.7187L4.58726 15.2907C3.98615 15.3198 3.70499 15.2326 3.39474 14.8351L1.48476 12.3628C1.14543 11.9071 1 11.5677 1 11.1702V2.31843C1 1.80458 1.23269 1.38768 1.88227 1.32951Z" fill="#8B95A1"/>
</svg>
