<svg width="16" height="17" viewBox="0 0 16 17" fill="none" xmlns="http://www.w3.org/2000/svg">
<path fill-rule="evenodd" clip-rule="evenodd" d="M0.810611 6.22106C0.800049 6.6522 0.800049 7.14166 0.800049 7.70002V9.30002C0.800049 11.5628 0.800049 12.6941 1.50299 13.3971C2.20594 14.1 3.33731 14.1 5.60005 14.1H10.4C12.6628 14.1 13.7942 14.1 14.4971 13.3971C15.2 12.6941 15.2 11.5628 15.2 9.30003V7.70003C15.2 7.14167 15.2 6.6522 15.1895 6.22106L8.77708 9.78351C8.29384 10.052 7.70626 10.052 7.22302 9.78351L0.810611 6.22106ZM0.994422 4.52379C1.06072 4.54044 1.12597 4.56592 1.18856 4.6007L8.00005 8.38486L14.8115 4.6007C14.8741 4.56592 14.9394 4.54044 15.0057 4.5238C14.9017 4.14498 14.7421 3.84795 14.4971 3.60297C13.7942 2.90002 12.6628 2.90002 10.4 2.90002H5.60005C3.33731 2.90002 2.20594 2.90002 1.50299 3.60297C1.25801 3.84795 1.0984 4.14498 0.994422 4.52379Z" fill="#8B95A1"/>
</svg>
