<svg width="160" height="48" viewBox="0 0 160 48" fill="none" xmlns="http://www.w3.org/2000/svg">
<path fill-rule="evenodd" clip-rule="evenodd" d="M45.9685 23.5156C45.9685 28.8359 42.8982 32.2344 38.6091 32.2344C34.2966 32.2344 31.2263 28.8359 31.2263 23.5156C31.2263 18.1953 34.2966 14.7969 38.6091 14.7969C42.8982 14.7969 45.9685 18.1953 45.9685 23.5156ZM44.3513 23.5156C44.3513 18.9922 41.8904 16.3672 38.6091 16.3672C35.3279 16.3672 32.8669 18.9922 32.8669 23.5156C32.8669 28.0156 35.3044 30.6641 38.6091 30.6641C41.8904 30.6641 44.3513 28.0391 44.3513 23.5156ZM53.113 32H54.7771V24.2422H64.2693V32H65.9568V15.0312H64.2693V22.7656H54.7771V15.0312H53.113V32ZM74.0156 32H72.2578L78.4219 15.0312H80.2266L86.3906 32H84.6328L82.8516 26.9609H75.7969L74.0156 32ZM76.3359 25.4844H82.3359L79.3828 17.1875H79.2656L76.3359 25.4844ZM105.957 15.0312H104.317V29.0469H104.176L94.3088 15.0312H92.6917V32H94.3557V18.0078H94.4963L104.364 32H105.957V15.0312ZM125.102 15.0312H126.766V26.2578C126.766 29.7266 124.141 32.2812 120.297 32.2812C116.43 32.2812 113.828 29.7266 113.828 26.2578V15.0312H115.492V26.1406C115.492 28.7891 117.391 30.7344 120.297 30.7344C123.203 30.7344 125.102 28.7891 125.102 26.1406V15.0312ZM135.083 15.0312L139.676 22.3203H139.793L144.434 15.0312H146.403L140.965 23.5156L146.403 32H144.434L139.793 24.8047H139.676L135.059 32H133.09L138.622 23.5156L133.09 15.0312H135.083ZM14.4956 15.0312H12.5737L18.6909 24.7344V32H20.3784V24.7344L26.4956 15.0312H24.5737L19.605 23.0469H19.4644L14.4956 15.0312Z" fill="black"/>
</svg>
